HIERARCHY
ROOT Hips
{
    OFFSET 0.000000 0.000000 0.000000
    CHANNELS 6 Xposition Yposition Zposition Zrotation Yrotation Xrotation
    JOINT LeftUpLeg
    {
        OFFSET 1.363060 -1.794630 0.839290
        CHANNELS 3 Zrotation Yrotation Xrotation
        JOINT LeftLeg
        {
            OFFSET 2.448110 -6.726130 0.000000
            CHANNELS 3 Zrotation Yrotation Xrotation
            JOINT LeftFoot
            {
                OFFSET 2.562200 -7.039589 0.000000
                CHANNELS 3 Zrotation Yrotation Xrotation
                JOINT LeftToeBase
                {
                    OFFSET 0.157640 -0.433110 2.322550
                    CHANNELS 3 Zrotation Yrotation Xrotation
                    End Site
                    {
                        OFFSET 0.000000 0.000000 0.000000
                    }
                }
            }
        }
    }
    JOINT RightUpLeg
    {
        OFFSET -1.305520 -1.794630 0.839290
        CHANNELS 3 Zrotation Yrotation Xrotation
        JOINT RightLeg
        {
            OFFSET -2.542530 -6.985549 0.000000
            CHANNELS 3 Zrotation Yrotation Xrotation
            JOINT RightFoot
            {
                OFFSET -2.568260 -7.056230 0.000000
                CHANNELS 3 Zrotation Yrotation Xrotation
                JOINT RightToeBase
                {
                    OFFSET -0.164730 -0.452590 2.363150
                    CHANNELS 3 Zrotation Yrotation Xrotation
                    End Site
                    {
                        OFFSET 0.000000 0.000000 0.000000
                    }
                }
            }
        }
    }
    JOINT Spine
    {
        OFFSET 0.028270 2.035590 -0.193380
        CHANNELS 3 Zrotation Yrotation Xrotation
        JOINT Spine1
        {
            OFFSET 0.056720 2.048850 -0.042750
            CHANNELS 3 Zrotation Yrotation Xrotation
            JOINT Neck1
            {
                OFFSET -0.054170 1.746240 0.172020
                CHANNELS 3 Zrotation Yrotation Xrotation
                JOINT Head
                {
                    OFFSET 0.104070 1.761360 -0.123970
                    CHANNELS 3 Zrotation Yrotation Xrotation
                    End Site
                    {
                        OFFSET 0.000000 0.000000 0.000000
                    }
                }
            }
            JOINT LeftShoulder
            {
                OFFSET 0.000000 0.000000 0.000000
                CHANNELS 3 Zrotation Yrotation Xrotation
                JOINT LeftArm
                {
                    OFFSET 3.362410 1.200890 -0.311210
                    CHANNELS 3 Zrotation Yrotation Xrotation
                    JOINT LeftForeArm
                    {
                        OFFSET 4.983000 -0.000000 -0.000000
                        CHANNELS 3 Zrotation Yrotation Xrotation
                        JOINT LeftHand
                        {
                            OFFSET 3.483560 -0.000000 -0.000000
                            CHANNELS 3 Zrotation Yrotation Xrotation
                            End Site
                            {
                                OFFSET 0.000000 0.000000 0.000000
                            }
                        }
                    }
                }
            }
            JOINT RightShoulder
            {
                OFFSET 0.000000 0.000000 0.000000
                CHANNELS 3 Zrotation Yrotation Xrotation
                JOINT RightArm
                {
                    OFFSET -3.136600 1.374050 -0.404650
                    CHANNELS 3 Zrotation Yrotation Xrotation
                    JOINT RightForeArm
                    {
                        OFFSET -5.241900 -0.000000 -0.000000
                        CHANNELS 3 Zrotation Yrotation Xrotation
                        JOINT RightHand
                        {
                            OFFSET -3.444170 -0.000000 -0.000000
                            CHANNELS 3 Zrotation Yrotation Xrotation
                            End Site
                            {
                                OFFSET 0.000000 0.000000 0.000000
                            }
                        }
                    }
                }
            }
        }
    }
}
MOTION
Frames: 9
Frame Time: 0.016667
19.665932 17.547815 6.735113 4.796838 6.376788 18.361099 -12.528741 -2.148739 -45.970715 -21.868498 -14.251228 54.458485 -3.501993 45.622417 1.795119 -0.754260 1.780356 -5.845203 8.546355 5.312697 -38.049160 41.061890 21.779350 67.306534 23.136992 -67.987503 -46.543621 -0.676569 -2.365039 -1.472278 2.180627 3.319987 -1.038276 -3.021911 1.390299 0.837078 4.022326 -9.787442 11.454875 -2.371923 -8.909537 -13.575888 -5.793539 5.770948 4.390500 -57.466660 2.476780 20.018250 15.428112 1.278499 -57.830769 2.106941 -3.690125 -58.886810 5.167705 -4.342610 2.652508 50.532951 -4.966116 11.429247 -10.558528 -2.460040 -48.790428 -4.920668 -0.071089 -49.473057 
19.690105 17.328083 6.809604 4.475501 5.857427 19.186794 -11.453443 -3.916085 -47.582870 -23.479910 -13.748572 56.741360 -2.145320 43.963436 2.162274 -0.754269 1.191615 -5.579392 8.003207 6.054412 -40.832588 41.632156 18.098860 69.060188 21.908625 -66.068626 -47.030270 -0.695106 -2.443753 -1.668046 2.277714 3.229588 -0.995006 -3.084676 1.363773 0.697407 4.141022 -9.484840 11.349174 -2.258739 -8.592453 -13.808947 -5.708705 4.762026 4.186013 -57.388268 0.959836 20.942190 15.865493 1.321259 -58.313068 1.343881 -4.232714 -59.350689 5.048536 -3.384621 2.557922 50.143631 -3.754010 10.615266 -10.431066 -2.352880 -48.683613 -4.898835 -0.055641 -49.294533 
19.716927 17.087887 6.889946 4.148223 5.251878 19.844297 -10.760153 -5.204307 -48.887112 -25.224277 -13.743357 59.671360 -3.355692 44.252827 1.042913 -1.239413 1.947067 -8.825102 7.635414 6.608489 -43.467556 43.026871 14.873060 71.642761 21.504366 -65.143745 -48.618378 -0.667782 -2.364694 -1.936287 2.363061 3.103101 -0.938457 -3.174643 1.321279 0.531421 4.432758 -9.219176 11.474781 -2.879240 -8.296844 -15.303164 -5.536809 3.761490 3.864806 -56.822971 -0.400873 20.534334 16.248861 0.960425 -58.531975 1.093701 -4.331462 -59.395626 4.693413 -2.454234 2.518332 49.911255 -2.530596 10.596454 -10.543718 -2.335495 -49.011536 -4.537239 0.069974 -49.617161 
19.744602 16.825890 6.973498 3.749244 4.533246 20.376543 -8.877548 -7.046712 -49.426338 -28.150888 -12.624624 62.762146 -7.271821 48.020580 -8.671000 -1.105603 1.343391 -7.820692 7.875661 6.607509 -46.045311 45.053719 12.196757 75.090950 20.633211 -65.297150 -50.088680 -0.642185 -2.313164 -2.551523 2.329575 3.071169 -1.027512 -3.184471 1.329875 0.435443 4.683261 -8.580794 11.459178 -2.733594 -7.650896 -15.930846 -5.313358 2.750558 3.634441 -55.897148 -1.783024 19.687166 16.882828 0.845235 -58.610325 1.600113 -3.785765 -59.386223 4.433553 -1.483316 2.566688 49.348392 -1.491451 9.713896 -10.500656 -2.507504 -49.439190 -5.162294 -0.932962 -49.954876 
19.780514 16.551851 7.060658 3.296867 3.892965 20.561440 -7.853837 -7.993039 -49.814411 -29.995073 -11.401196 65.940453 -9.816006 48.389965 -17.045597 -0.872733 2.544743 -6.855237 9.418518 5.126535 -48.356380 46.828690 10.221184 79.090164 19.680290 -64.518005 -52.078712 -0.653967 -2.347755 -2.426581 2.451996 2.953809 -0.977647 -3.236927 1.289677 0.325609 4.828952 -8.010229 11.239226 -2.540416 -7.092036 -16.060019 -5.005633 1.758933 3.448742 -54.663593 -2.948896 18.558182 17.798903 0.312872 -59.308144 1.544555 -3.677238 -59.842247 4.060338 -0.550066 2.522338 48.540722 -0.642947 8.570655 -10.102330 -2.003203 -48.586086 -3.901935 0.376814 -49.079662 
19.816151 16.277706 7.159171 2.773043 3.480440 20.256380 -8.421181 -7.704223 -49.892960 -31.940144 -11.554920 70.093742 -11.482685 49.441681 -25.114916 -0.465952 2.844622 -4.637797 11.543751 3.200964 -49.943390 49.404434 8.646402 83.539162 19.360239 -65.518166 -55.564606 -0.588958 -2.089185 -2.048297 2.527727 2.748839 -0.839296 -3.114350 1.210048 0.270689 5.112238 -7.286627 10.992763 -2.432394 -6.406436 -15.640218 -4.645020 0.829542 3.357976 -53.065086 -3.689765 16.044086 18.476748 -0.096068 -59.485237 3.336691 -1.841685 -59.696228 3.815936 0.219229 2.506406 47.366776 -0.002682 7.523550 -9.572454 -1.966422 -48.417332 -3.993997 0.526356 -48.876911 
19.858091 16.012041 7.264351 2.295764 2.852319 19.927410 -10.401310 -6.509966 -50.399681 -38.625187 -13.431253 78.345634 -14.038819 55.953903 -34.911125 -0.145191 3.609400 -3.220715 13.864064 1.356205 -51.508266 51.491196 7.028364 87.972694 19.189274 -66.575577 -58.641552 -0.570816 -2.032626 -2.201960 2.638876 2.556970 -0.887821 -3.021835 1.130649 0.079887 5.137371 -6.686150 10.916673 -2.156858 -5.789156 -15.639980 -3.958039 0.046941 3.044753 -51.779030 -4.357762 15.295778 20.093401 -1.696622 -56.858360 -1.630388 -10.646042 -56.320660 3.313743 0.927193 2.424110 46.329124 0.189857 6.381649 -9.101704 -1.722288 -48.102001 -4.211046 -0.146540 -48.411831 
19.900211 15.780895 7.378408 1.890188 2.522743 19.257017 -12.228442 -5.581280 -50.466991 -40.028610 -13.270563 82.910828 -15.650152 57.809528 -40.862240 -0.088600 4.132519 -3.182430 15.299349 -0.020256 -52.254967 52.318657 5.086194 90.555855 18.832993 -66.693359 -60.957207 -0.502985 -1.783387 -2.110144 2.656461 2.319414 -0.947471 -2.926904 1.027457 0.054417 5.559828 -6.035807 10.851605 -2.423756 -5.141429 -15.591054 -3.838384 -0.406798 3.011144 -49.152119 -4.370824 12.415596 19.490480 -1.769565 -59.671974 2.863776 -2.914608 -59.085869 3.061583 1.255018 2.335103 44.972893 0.134204 4.672233 -8.679448 -1.596888 -48.526318 -5.773358 -1.364505 -48.595833 
19.937983 15.605396 7.499583 1.551051 2.144204 18.595766 -12.384559 -5.772207 -50.149963 -39.229469 -11.601638 83.952797 -15.524858 58.721958 -43.486305 0.092373 4.238492 -2.270893 15.820472 -0.384318 -52.276016 52.537472 3.351914 91.991982 19.148970 -66.414932 -62.915161 -0.324613 -1.113209 -0.980360 2.682202 2.075597 -1.207518 -2.786093 0.913121 0.001618 5.643274 -5.426881 10.778814 -2.003065 -4.513267 -15.317934 -3.358733 -0.805564 2.888614 -47.240070 -4.341162 11.724449 20.136028 -1.946469 -58.531586 1.622307 -5.378386 -57.928665 2.723426 1.540369 2.288809 43.765350 -0.188618 3.422483 -8.480854 -1.415033 -48.381725 -5.562262 -1.037794 -48.437576 
